<svg xmlns="http://www.w3.org/2000/svg" xmlns:xlink="http://www.w3.org/1999/xlink" viewBox="0 0 640 480"><style>
@keyframes a1_t { 0% { transform: translate(320px,236px) rotate(1deg); animation-timing-function: cubic-bezier(.4,0,.6,1); } 45.451% { transform: translate(320px,236px) rotate(1500deg); } 54.548% { transform: translate(320px,236px) rotate(1500deg); animation-timing-function: cubic-bezier(.4,0,.6,1); } 100% { transform: translate(320px,236px) rotate(0deg); } }
@keyframes a0_t { 0% { transform: scale(1,1); animation-timing-function: cubic-bezier(.4,0,.6,1); } 35.112% { transform: scale(1,1); animation-timing-function: cubic-bezier(.4,0,.6,1); } 50.504% { transform: scale(0,0); animation-timing-function: cubic-bezier(.4,0,.6,1); } 65.206% { transform: scale(1,1); animation-timing-function: cubic-bezier(.4,0,.6,1); } 100% { transform: scale(1,1); } }
@keyframes a0_o { 0% { opacity: 1; } 35.112% { opacity: 1; animation-timing-function: cubic-bezier(.4,0,.6,1); } 41.255% { opacity: 0; } 59.047% { opacity: 0; animation-timing-function: cubic-bezier(.4,0,.6,1); } 65.206% { opacity: 1; animation-timing-function: cubic-bezier(.4,0,.6,1); } 100% { opacity: 1; } }
@keyframes a2_t { 0% { transform: translate(314px,221px) scale(1,1) translate(-63.5px,-74.5px); } 37.915% { transform: translate(314px,221px) scale(1,1) translate(-63.5px,-74.5px); animation-timing-function: cubic-bezier(0,0,.6,1); } 44.629% { transform: translate(314px,221px) scale(1.4,1.4) translate(-63.5px,-74.5px); } 54.851% { transform: translate(314px,221px) scale(1.4,1.4) translate(-63.5px,-74.5px); animation-timing-function: cubic-bezier(.4,0,1,1); } 61.547% { transform: translate(314px,221px) scale(1,1) translate(-63.5px,-74.5px); animation-timing-function: cubic-bezier(0,0,.6,1); } 86.019% { transform: translate(314px,221px) scale(1,1) translate(-63.5px,-74.5px); } 100% { transform: translate(314px,221px) scale(1,1) translate(-63.5px,-74.5px); } }
@keyframes a2_o { 0% { opacity: 0; } 39.594% { opacity: 0; animation-timing-function: cubic-bezier(0,0,.6,1); } 44.629% { opacity: 1; } 54.851% { opacity: 1; animation-timing-function: cubic-bezier(.4,0,1,1); } 59.886% { opacity: 0; animation-timing-function: cubic-bezier(0,0,.6,1); } 86.019% { opacity: 0; } 100% { opacity: 0; } }
</style><defs><symbol id="Symbol-1" preserveAspectRatio="none" width="580.2" height="680.5" viewBox="0 0 580.2 680.5" overflow="visible"><g><path class="st0" d="M310.3 488.4c2.4-0.3 4.8-0.5 7.2-0.8c9.4-4.1 17.9 .5 26.8 3.9c57.2 22 115.1 39.2 175.2 42.6c6.8 .4 37.2 2.6 43.9-4.8c-13.2 29.9-45.5 63.1-58.6 75.7c-5.7 5.4-18.6 16.2-26.4 21.5c-43.2 32.8-105.6 53.9-166.5 54c-26.9 0-54.2-2.7-80.8-11.1c-51.5-16.3-76.8-32.5-110.8-60.6c-20.2-17.5-33.6-34-48.3-55.6c7.3-10.5 22.6-15 32.3-14.5c30 1.8 59.6-5.4 89.6-5.1c16.2 .2 31.8-6.5 46.9-13.7c23-11.1 44.9-25.5 69.5-31.5Z" fill="url(#Gradient-0)"/><path class="st1" d="M407 198.7" fill="#ee2e2f"/><path class="st1" d="M306.1 220.8" fill="#ee2e2f"/><path class="st1" d="M306.1 123c12 0 10.1 0 18.6 0c7.7-1.1 8.7-0.1 12.7-1c7.4-0.8 8.7 5.4 21.2 5.4c20 2.8 16.8 1 24.8 3c33.9 8.5 61.6 21.7 93.4 43.7c27 18.6 53.5 46.5 71.6 73.6c2.2 3.2-2.4 9.2-3.4 13c-1.4 1.2-3 2.8-4.7 2.1c-47.1-19.4-91.7 .2-137.3 11.3c-30.4 7.4-57.2 26.1-86.8 35.2c-7.9 2.4-15.8 4.7-23.7 7.1c-28.9-8.8-58.6-14.6-83.8-36.8c4.7-16.8-37.9-113.4-36-123.5c4.3-2.5 25.7-12.8 36.5-16.6c19.5-7.7 36.2-10.9 47.8-13.3c2.9-0.6 1.5-0.6 13.2-2.2" fill="#ee2e2f"/><path class="st2" d="M143.6 175c-9.9 15.4 7.1 25.7 8.2 38.6c6.2 10.9 3.9 19.4-4.7 26c-4.3 6.9-5.5 14-0.7 21.3c21.7 1.1 42.2 9.1 62.6 17.4c8.1-2.8 15.4-12.4 24.7-4.1c2.1-3.5 2.6-7.3 1.7-11.4c-1.9-6.6-6.5-10.6-9.5-16.1c-2.2-3.9-2.8-8.5-3.6-12.9c-0.5-1.8-1-3.6-1.7-5.3c-5.7-10.9-4.7-21.5 .9-31.9c2.1-10.4 9.9-15.7 13.8-24.4c.5-2.1 .5-4.3 .2-6.4c-5.5-13.9-15.4-12-24.2-12.1c-3.5-1.4-6.7-0.1-9.9-0.6c-1.3 .3-1.4 .3-11.8 1c-2 .6-3.9 .2-6.1 .2c-1.1 .1-10.8 2.5-13.4 4" fill="#ee2e2e"/><path class="st1" d="M316.2 127.4" fill="#ee2e2f"/><g><path d="M276.5 300.5c-1.2 .1-1.8-1.4-0.9-2.1c27.8-23.9 103.2-28.5 133.9-40.9c26.1-10.4 53-9.9 79.2-16.6c19.1-4.9 56.7 4.1 60.9 8.6c4.1 7.9 5 6.5 13.5 22.9c10.6 20.5 17 39.6 11.1 63.7c-5.3 21.7-25.4 37.8-45.4 39.2c-38.8 2.5-75.9-5.3-112.7-22.1c-27.6-12.5-54.2-28.5-82.4-38.9c-6.4-2.4-45.2-14.3-57.2-13.8Z" fill="url(#Gradient-1)"/></g><path d="M262.8 287.2c9.1 4.2 33.1 11.3 53.4 22.1c-28.3 24.1-84.2 43.4-116.1 57.5c-36.1 15.9-72.4 19-109.8 16.1c-15.2-1.2-29.5-6.7-39.9-17.8c-7.9-8.4-14.6-15.9-14-31c1-21.7 11.6-43 22-62.9c16.2-8.3 35.5-16.4 68.1-15c22.3 3.1 41.2-0.6 75.4 15" fill="url(#Gradient-2)"/><path class="st2" d="M179.8 155.6" fill="#ee2e2e"/><path class="st1" d="M174.7 239.4c-3.2 6.7-28.7 13.4-28.3 20.9c-26.9-0.5-62.3-0.3-88 10.9c19.5-36 46.6-68.2 79-91.9c3-2.2 5-6 9-4.6c.5 8.1-2 17.1 5.8 22.6c6.2 4.4 2.5 11.2 1.7 17.1c3.3 9.4 25.4 17.7 20.8 25Z" fill="#ee2e2f"/><path class="st2" d="M246.8 273.7c-5.4-15.3-1.7-31.5-2.8-47.3c1.4-3.1 2.4-7.2 6.4-5c-1.2 13.1 1.3 25.7 3.9 38.1c2 9.4 .3 13.9-7.5 14.2Z" fill="#ee2e2e"/><path class="st2" d="M291.5 217.4c.4 12.9 .7 25.9 1.1 38.8c-15.7-12.3-0.9-25.9-1.1-38.8Z" fill="#ee2e2e"/><path class="st2" d="M285.7 193.6c2 2.2 4.1 4.3 6.1 6.5c-0.1 4.2-0.2 8.4-0.3 12.7c-4.1-5.4-6.5-11.6-5.8-19.2Z" fill="#ee2e2e"/><path class="st5" d="M167.9 178.3c-0.4 3.9-0.8 7.8-1.2 11.7c-1 3.8-2.1 7.4-6.2 6.2c.2-7.4 1.8-13.9 7.4-17.9Z" fill="#ee2d2c"/></g><g><g><path class="st6" d="M374.3 127.8l40.9 70.8l-71-29.5l-34.8 49v-0.1l4.1-67.6l-6.1-3.8l-0.7-26.8l.4-0.5l-0.4-0.2l81-38.3Z" fill="#13743a"/><path class="st7" d="M313.5 150.4l-4.1 67.6l-2-71.4Z" fill="#58b947"/><path class="st7" d="M307.4 146.6l2 71.4l-0.2 2.5l-0.2 3.5l-33.3-53.7l-70.3 27.4l40.1-67.2l-16-49.8l77.2 38.4v.7l-14.9 17.4Z" fill="#58b947"/><path class="st6" d="M306.7 119.8l.7 26.8l-15.6-9.4Z" fill="#13743a"/><path class="st7" d="M307.1 119.3l-0.4 .5v-0.7Z" fill="#58b947"/></g></g><path d="M320.2 309.6c-3.7-4.2-139.9-48.8-159.7-50.5c-49.4-4.1-100.2 9.1-102.1 12.1c-8.4 13.8-32.6 61.4-18.1 86.6c6.9 12.2 14.7 19.5 27.5 24c12.9 4.7 27.5 4.8 39.7 4.9c24.4 .3 48.4-3.1 74-11.3c46.3-14.6 92.2-39.8 115.5-52.1c6.5-3.4 23.2-13.7 23.2-13.7Z" fill="url(#Gradient-3)"/><path d="M421.5 532.1c40.4 12.3 68.5 18.7 90.6 21.2c18 2.1 36 2.1 36 2.1c0 0 12.2-15.7 23.3-42.6c3-7.4 8.8-25.2 6.9-40.7c-1.8-14.5-6.4-22.7-22.9-38.4c-16.2-15.4-44.3-23.4-78.1-15.1c-23.8 5.9-30.5 15.9-67.3 32.8c-43 19.8-99.8 36.9-99.8 36.9c0 0 5.8 1.8 51.5 21.2c27.2 11.5 45.3 18.2 59.8 22.6Z" fill="url(#Gradient-4)"/><path d="M310.9 489.3c0 0-72.5-36.4-125.4-52.6c-50.1-15.3-72.5-21.4-98.8-20.9c-16.6 .4-40.7 14.8-45.8 22.4c-5.9 8.7-8.5 15.6-7.2 24.4c2.3 17.1 10.1 34.2 12.1 39.2c1.9 4.7 5 14.4 11 26.1c2.7 5.2 9.8 17.6 15.2 25.2c2.9 4.1 32.6-4.4 37.7-3.5c13 2.1 17.6 1.1 53.7-6.8c25.3-5.5 46.8-8.2 64-12.5c11.3-2.8 36.4-10.3 44.9-12.6c33.5-9.2 21.2-5.9 28.3-10.4c1.3-0.8 4.7-8.1 8.1-12.1c0 0 2-2.3 2.2-5.9Z" fill="url(#Gradient-5)"/></symbol><linearGradient id="Gradient-0" x1="72" y1="583.2" x2="563.4" y2="583.2" gradientUnits="userSpaceOnUse"><stop offset=".2" stop-color="#ef3925"/><stop offset=".9" stop-color="#ef412e"/><stop offset="1" stop-color="#f04f4b"/></linearGradient><linearGradient id="Gradient-1" x1="275.2" y1="307.6" x2="576.5" y2="307.6" gradientUnits="userSpaceOnUse"><stop offset=".6" stop-color="#ef3925"/><stop offset=".9" stop-color="#ef412e"/><stop offset="1" stop-color="#f04f4b"/></linearGradient><linearGradient id="Gradient-2" x1="36.4" y1="320" x2="316.2" y2="320" gradientUnits="userSpaceOnUse"><stop offset="0" stop-color="#ee352f"/><stop offset="0" stop-color="#c32026"/><stop offset=".2" stop-color="#c32026"/></linearGradient><linearGradient id="Gradient-3" x1="35.8" y1="322.5" x2="320.2" y2="322.5" gradientUnits="userSpaceOnUse"><stop offset="0" stop-color="#ee352f"/><stop offset="0" stop-color="#7f1417"/></linearGradient><linearGradient id="Gradient-4" x1="310.2" y1="485.4" x2="578.7" y2="485.4" gradientUnits="userSpaceOnUse"><stop offset="0" stop-color="#ee352f"/><stop offset="0" stop-color="#7f1417"/></linearGradient><linearGradient id="Gradient-5" x1="33.3" y1="485" x2="310.9" y2="485" gradientUnits="userSpaceOnUse"><stop offset=".2" stop-color="#ef3925"/><stop offset=".9" stop-color="#ef412e"/><stop offset="1" stop-color="#f04f4b"/></linearGradient></defs><g style="animation: 5.96s linear infinite both a1_t;"><path fill="red" d="M-24.6-101.4c-7.8 1.9-15.3 4.7-22.5 8.3c-2.4 1.3-4.1 3.2-5 5.8c-0.8 2.6-0.6 5.2 .6 7.7c2.5 4.9 8.5 6.9 13.4 4.4c5.8-3 11.9-5.2 18.2-6.7c6.5-1.6 13.1-2.4 19.9-2.4c4.7 0 9.3 .4 13.9 1.1c4.5 .8 8.9 1.9 13.2 3.3c5.2 1.8 10.9-1 12.7-6.2c.8-2.6 .7-5.2-0.5-7.7c-1.3-2.4-3.2-4.1-5.8-5c-5.3-1.8-10.7-3.2-16.3-4.1c-5.7-0.9-11.4-1.4-17.2-1.4c-8.3 0-16.5 1-24.6 2.9Zm126.2 77.9c-1.7-7.5-4.2-14.7-7.6-21.7c-1.2-2.4-3.1-4.1-5.7-5.1c-2.6-0.9-5.1-0.7-7.6 .4c-5 2.4-7.1 8.4-4.7 13.4c2.7 5.6 4.8 11.4 6.2 17.5c1.4 6.2 2.1 12.5 2.1 19c0 3.8-0.2 7.6-0.7 11.3c-0.5 3.7-1.3 7.3-2.2 10.8c-0.7 2.7-0.4 5.2 1 7.6c1.4 2.4 3.4 3.9 6 4.7c5.3 1.4 10.8-1.7 12.3-7c1.2-4.5 2.1-8.9 2.7-13.5c.6-4.6 .9-9.2 .9-13.9c0-8-0.9-15.8-2.7-23.5Zm-202.7 49.2c2 8.1 5 15.9 9 23.3c1.3 2.4 3.3 4 5.9 4.9c2.7 .7 5.2 .5 7.6-0.8c4.9-2.6 6.8-8.6 4.2-13.5c-3.2-6-5.7-12.3-7.3-18.8c-1.7-6.8-2.6-13.7-2.6-20.8c0-4.4 .3-8.7 1-13c.7-4.3 1.6-8.4 2.9-12.4c.8-2.7 .6-5.2-0.7-7.7c-1.3-2.4-3.2-4-5.8-4.9c-5.3-1.7-10.9 1.3-12.6 6.5c-1.6 5-2.8 10.2-3.6 15.4c-0.8 5.3-1.2 10.7-1.2 16.1c0 8.7 1.1 17.3 3.2 25.7Zm127.8 75.1c8.5-2.2 16.6-5.5 24.2-9.7c4.8-2.7 6.5-8.8 3.8-13.7c-2.7-4.8-8.7-6.5-13.6-3.8c-6.1 3.5-12.7 6.1-19.5 7.9c-7 1.9-14.2 2.8-21.6 2.8c-4.1 0-8.2-0.3-12.2-0.9c-3.9-0.5-7.8-1.4-11.6-2.5c-2.6-0.7-5.2-0.5-7.6 .8c-2.4 1.4-4 3.4-4.8 6c-1.6 5.3 1.5 10.8 6.8 12.4c4.7 1.4 9.5 2.4 14.4 3.1c4.9 .7 9.9 1.1 15 1.1c9.1 0 18-1.1 26.7-3.5Z" fill-rule="evenodd" transform="translate(320,236) rotate(1)" style="animation: 5.96s linear infinite both a0_t, 5.96s linear infinite both a0_o;"/></g><use width="127.1" height="149" xlink:href="#Symbol-1" opacity="0" transform="translate(314,221) translate(-63.5,-74.5)" style="animation: 5.96s linear infinite both a2_t, 5.96s linear infinite both a2_o;"/></svg>